<?xml version="1.0" encoding="UTF-8" standalone="no"?>
<!DOCTYPE svg PUBLIC "-//W3C//DTD SVG 1.1//EN"
 "http://www.w3.org/Graphics/SVG/1.1/DTD/svg11.dtd">
<!-- Generated by graphviz version 2.47.0 (20210316.0004)
 -->
<!-- Title: dependencies Pages: 1 -->
<svg width="1990pt" height="211pt"
 viewBox="0.00 0.00 1990.00 211.00" xmlns="http://www.w3.org/2000/svg" xmlns:xlink="http://www.w3.org/1999/xlink">
<g id="graph0" class="graph" transform="scale(1 1) rotate(0) translate(4 207)">
<title>dependencies</title>
<polygon fill="white" stroke="transparent" points="-4,4 -4,-207 1986,-207 1986,4 -4,4"/>
<text text-anchor="start" x="970.01" y="-42.4" font-family="Times-12" font-weight="bold" font-size="14.00">Legend</text>
<polygon fill="#ffffb3" stroke="transparent" points="757,-10 757,-30 777,-30 777,-10 757,-10"/>
<text text-anchor="start" x="780.63" y="-15.4" font-family="Times-12" font-size="14.00"> &#160;Declarations</text>
<polygon fill="#8dd3c7" stroke="transparent" points="870,-10 870,-30 890,-30 890,-10 870,-10"/>
<text text-anchor="start" x="893.73" y="-15.4" font-family="Times-12" font-size="14.00"> &#160;Module</text>
<polygon fill="#80b1d3" stroke="transparent" points="956,-10 956,-30 976,-30 976,-10 956,-10"/>
<text text-anchor="start" x="979.78" y="-15.4" font-family="Times-12" font-size="14.00"> &#160;Bootstrap</text>
<polygon fill="#fdb462" stroke="transparent" points="1053,-10 1053,-30 1073,-30 1073,-10 1053,-10"/>
<text text-anchor="start" x="1076.67" y="-15.4" font-family="Times-12" font-size="14.00"> &#160;Providers</text>
<polygon fill="#fb8072" stroke="transparent" points="1149,-10 1149,-30 1169,-30 1169,-10 1149,-10"/>
<text text-anchor="start" x="1172.73" y="-15.4" font-family="Times-12" font-size="14.00"> &#160;Exports</text>
<g id="clust1" class="cluster">
<title>cluster_DashboardModule</title>
<polygon fill="none" stroke="black" stroke-dasharray="1,5" points="8,-70 8,-195 1974,-195 1974,-70 8,-70"/>
</g>
<g id="clust2" class="cluster">
<title>cluster_DashboardModule_declarations</title>
<polygon fill="none" stroke="black" points="114,-78 114,-130 1966,-130 1966,-78 114,-78"/>
</g>
<g id="clust14" class="cluster">
<title>cluster_DashboardModule_imports</title>
<polygon fill="none" stroke="black" points="16,-78 16,-130 106,-130 106,-78 16,-78"/>
</g>
<!-- ChartCardComponent -->
<g id="node1" class="node">
<title>ChartCardComponent</title>
<polygon fill="#ffffb3" stroke="black" points="1957.65,-122 1818.35,-122 1818.35,-86 1957.65,-86 1957.65,-122"/>
<text text-anchor="middle" x="1888" y="-99.8" font-family="Times,serif" font-size="14.00">ChartCardComponent</text>
</g>
<!-- DashboardModule -->
<g id="node12" class="node">
<title>DashboardModule</title>
<polygon fill="#8dd3c7" stroke="black" points="1026.19,-187 1023.19,-191 1002.19,-191 999.19,-187 905.81,-187 905.81,-151 1026.19,-151 1026.19,-187"/>
<text text-anchor="middle" x="966" y="-164.8" font-family="Times,serif" font-size="14.00">DashboardModule</text>
</g>
<!-- ChartCardComponent&#45;&gt;DashboardModule -->
<g id="edge1" class="edge">
<title>ChartCardComponent&#45;&gt;DashboardModule</title>
<path fill="none" stroke="black" d="M1888,-122.09C1888,-145.13 1888,-182 1888,-182 1888,-182 1036.14,-182 1036.14,-182"/>
<polygon fill="black" stroke="black" points="1036.14,-178.5 1026.14,-182 1036.14,-185.5 1036.14,-178.5"/>
</g>
<!-- ChatCardComponent -->
<g id="node2" class="node">
<title>ChatCardComponent</title>
<polygon fill="#ffffb3" stroke="black" points="1800.49,-122 1665.51,-122 1665.51,-86 1800.49,-86 1800.49,-122"/>
<text text-anchor="middle" x="1733" y="-99.8" font-family="Times,serif" font-size="14.00">ChatCardComponent</text>
</g>
<!-- ChatCardComponent&#45;&gt;DashboardModule -->
<g id="edge2" class="edge">
<title>ChatCardComponent&#45;&gt;DashboardModule</title>
<path fill="none" stroke="black" d="M1733,-122.28C1733,-143.32 1733,-175 1733,-175 1733,-175 1036.19,-175 1036.19,-175"/>
<polygon fill="black" stroke="black" points="1036.19,-171.5 1026.19,-175 1036.19,-178.5 1036.19,-171.5"/>
</g>
<!-- DashboardComponent -->
<g id="node3" class="node">
<title>DashboardComponent</title>
<polygon fill="#ffffb3" stroke="black" points="1647.97,-122 1506.03,-122 1506.03,-86 1647.97,-86 1647.97,-122"/>
<text text-anchor="middle" x="1577" y="-99.8" font-family="Times,serif" font-size="14.00">DashboardComponent</text>
</g>
<!-- DashboardComponent&#45;&gt;DashboardModule -->
<g id="edge3" class="edge">
<title>DashboardComponent&#45;&gt;DashboardModule</title>
<path fill="none" stroke="black" d="M1577,-122.11C1577,-141.34 1577,-169 1577,-169 1577,-169 1036.26,-169 1036.26,-169"/>
<polygon fill="black" stroke="black" points="1036.26,-165.5 1026.26,-169 1036.26,-172.5 1036.26,-165.5"/>
</g>
<!-- DonutCardComponent -->
<g id="node4" class="node">
<title>DonutCardComponent</title>
<polygon fill="#ffffb3" stroke="black" points="1487.54,-122 1344.46,-122 1344.46,-86 1487.54,-86 1487.54,-122"/>
<text text-anchor="middle" x="1416" y="-99.8" font-family="Times,serif" font-size="14.00">DonutCardComponent</text>
</g>
<!-- DonutCardComponent&#45;&gt;DashboardModule -->
<g id="edge4" class="edge">
<title>DonutCardComponent&#45;&gt;DashboardModule</title>
<path fill="none" stroke="black" d="M1416,-122.02C1416,-139.37 1416,-163 1416,-163 1416,-163 1036.22,-163 1036.22,-163"/>
<polygon fill="black" stroke="black" points="1036.22,-159.5 1026.22,-163 1036.22,-166.5 1036.22,-159.5"/>
</g>
<!-- InvoicesManagementComponent -->
<g id="node5" class="node">
<title>InvoicesManagementComponent</title>
<polygon fill="#ffffb3" stroke="black" points="1325.84,-122 1124.16,-122 1124.16,-86 1325.84,-86 1325.84,-122"/>
<text text-anchor="middle" x="1225" y="-99.8" font-family="Times,serif" font-size="14.00">InvoicesManagementComponent</text>
</g>
<!-- InvoicesManagementComponent&#45;&gt;DashboardModule -->
<g id="edge5" class="edge">
<title>InvoicesManagementComponent&#45;&gt;DashboardModule</title>
<path fill="none" stroke="black" d="M1225,-122.24C1225,-137.57 1225,-157 1225,-157 1225,-157 1036.4,-157 1036.4,-157"/>
<polygon fill="black" stroke="black" points="1036.4,-153.5 1026.4,-157 1036.4,-160.5 1036.4,-153.5"/>
</g>
<!-- KpiCardComponent -->
<g id="node6" class="node">
<title>KpiCardComponent</title>
<polygon fill="#ffffb3" stroke="black" points="1105.54,-122 976.46,-122 976.46,-86 1105.54,-86 1105.54,-122"/>
<text text-anchor="middle" x="1041" y="-99.8" font-family="Times,serif" font-size="14.00">KpiCardComponent</text>
</g>
<!-- KpiCardComponent&#45;&gt;DashboardModule -->
<g id="edge6" class="edge">
<title>KpiCardComponent&#45;&gt;DashboardModule</title>
<path fill="none" stroke="black" d="M1001.16,-122.11C1001.16,-122.11 1001.16,-140.99 1001.16,-140.99"/>
<polygon fill="black" stroke="black" points="997.66,-140.99 1001.16,-150.99 1004.66,-140.99 997.66,-140.99"/>
</g>
<!-- MapCardComponent -->
<g id="node7" class="node">
<title>MapCardComponent</title>
<polygon fill="#ffffb3" stroke="black" points="958.2,-122 823.8,-122 823.8,-86 958.2,-86 958.2,-122"/>
<text text-anchor="middle" x="891" y="-99.8" font-family="Times,serif" font-size="14.00">MapCardComponent</text>
</g>
<!-- MapCardComponent&#45;&gt;DashboardModule -->
<g id="edge7" class="edge">
<title>MapCardComponent&#45;&gt;DashboardModule</title>
<path fill="none" stroke="black" d="M932,-122.11C932,-122.11 932,-140.99 932,-140.99"/>
<polygon fill="black" stroke="black" points="928.5,-140.99 932,-150.99 935.5,-140.99 928.5,-140.99"/>
</g>
<!-- PickerCardComponent -->
<g id="node8" class="node">
<title>PickerCardComponent</title>
<polygon fill="#ffffb3" stroke="black" points="806.31,-122 661.69,-122 661.69,-86 806.31,-86 806.31,-122"/>
<text text-anchor="middle" x="734" y="-99.8" font-family="Times,serif" font-size="14.00">PickerCardComponent</text>
</g>
<!-- PickerCardComponent&#45;&gt;DashboardModule -->
<g id="edge8" class="edge">
<title>PickerCardComponent&#45;&gt;DashboardModule</title>
<path fill="none" stroke="black" d="M734,-122.24C734,-137.57 734,-157 734,-157 734,-157 895.65,-157 895.65,-157"/>
<polygon fill="black" stroke="black" points="895.65,-160.5 905.65,-157 895.65,-153.5 895.65,-160.5"/>
</g>
<!-- StatSummaryCardComponent -->
<g id="node9" class="node">
<title>StatSummaryCardComponent</title>
<polygon fill="#ffffb3" stroke="black" points="643.26,-122 458.74,-122 458.74,-86 643.26,-86 643.26,-122"/>
<text text-anchor="middle" x="551" y="-99.8" font-family="Times,serif" font-size="14.00">StatSummaryCardComponent</text>
</g>
<!-- StatSummaryCardComponent&#45;&gt;DashboardModule -->
<g id="edge9" class="edge">
<title>StatSummaryCardComponent&#45;&gt;DashboardModule</title>
<path fill="none" stroke="black" d="M551,-122.02C551,-139.37 551,-163 551,-163 551,-163 895.66,-163 895.66,-163"/>
<polygon fill="black" stroke="black" points="895.66,-166.5 905.66,-163 895.66,-159.5 895.66,-166.5"/>
</g>
<!-- TableCardComponent -->
<g id="node10" class="node">
<title>TableCardComponent</title>
<polygon fill="#ffffb3" stroke="black" points="440.42,-122 299.58,-122 299.58,-86 440.42,-86 440.42,-122"/>
<text text-anchor="middle" x="370" y="-99.8" font-family="Times,serif" font-size="14.00">TableCardComponent</text>
</g>
<!-- TableCardComponent&#45;&gt;DashboardModule -->
<g id="edge10" class="edge">
<title>TableCardComponent&#45;&gt;DashboardModule</title>
<path fill="none" stroke="black" d="M370,-122.11C370,-141.34 370,-169 370,-169 370,-169 895.85,-169 895.85,-169"/>
<polygon fill="black" stroke="black" points="895.85,-172.5 905.85,-169 895.85,-165.5 895.85,-172.5"/>
</g>
<!-- TimelineCardComponent -->
<g id="node11" class="node">
<title>TimelineCardComponent</title>
<polygon fill="#ffffb3" stroke="black" points="281.59,-122 122.41,-122 122.41,-86 281.59,-86 281.59,-122"/>
<text text-anchor="middle" x="202" y="-99.8" font-family="Times,serif" font-size="14.00">TimelineCardComponent</text>
</g>
<!-- TimelineCardComponent&#45;&gt;DashboardModule -->
<g id="edge11" class="edge">
<title>TimelineCardComponent&#45;&gt;DashboardModule</title>
<path fill="none" stroke="black" d="M202,-122.28C202,-143.32 202,-175 202,-175 202,-175 895.73,-175 895.73,-175"/>
<polygon fill="black" stroke="black" points="895.73,-178.5 905.73,-175 895.73,-171.5 895.73,-178.5"/>
</g>
<!-- UiModule -->
<g id="node13" class="node">
<title>UiModule</title>
<polygon fill="#8dd3c7" stroke="black" points="97.55,-122 94.55,-126 73.55,-126 70.55,-122 24.45,-122 24.45,-86 97.55,-86 97.55,-122"/>
<text text-anchor="middle" x="61" y="-99.8" font-family="Times,serif" font-size="14.00">UiModule</text>
</g>
<!-- UiModule&#45;&gt;DashboardModule -->
<g id="edge12" class="edge">
<title>UiModule&#45;&gt;DashboardModule</title>
<path fill="none" stroke="black" d="M61,-122.09C61,-145.13 61,-182 61,-182 61,-182 895.57,-182 895.57,-182"/>
<polygon fill="black" stroke="black" points="895.57,-185.5 905.57,-182 895.57,-178.5 895.57,-185.5"/>
</g>
</g>
</svg>
