<?xml version="1.0" encoding="UTF-8" standalone="no"?>
<!DOCTYPE svg PUBLIC "-//W3C//DTD SVG 1.1//EN"
 "http://www.w3.org/Graphics/SVG/1.1/DTD/svg11.dtd">
<!-- Generated by graphviz version 2.47.0 (20210316.0004)
 -->
<!-- Title: dependencies Pages: 1 -->
<svg width="772pt" height="284pt"
 viewBox="0.00 0.00 772.00 284.00" xmlns="http://www.w3.org/2000/svg" xmlns:xlink="http://www.w3.org/1999/xlink">
<g id="graph0" class="graph" transform="scale(1 1) rotate(0) translate(4 280)">
<title>dependencies</title>
<polygon fill="white" stroke="transparent" points="-4,4 -4,-280 768,-280 768,4 -4,4"/>
<text text-anchor="start" x="361.01" y="-42.4" font-family="Times-12" font-weight="bold" font-size="14.00">Legend</text>
<polygon fill="#ffffb3" stroke="transparent" points="148,-10 148,-30 168,-30 168,-10 148,-10"/>
<text text-anchor="start" x="171.63" y="-15.4" font-family="Times-12" font-size="14.00"> &#160;Declarations</text>
<polygon fill="#8dd3c7" stroke="transparent" points="261,-10 261,-30 281,-30 281,-10 261,-10"/>
<text text-anchor="start" x="284.73" y="-15.4" font-family="Times-12" font-size="14.00"> &#160;Module</text>
<polygon fill="#80b1d3" stroke="transparent" points="347,-10 347,-30 367,-30 367,-10 347,-10"/>
<text text-anchor="start" x="370.78" y="-15.4" font-family="Times-12" font-size="14.00"> &#160;Bootstrap</text>
<polygon fill="#fdb462" stroke="transparent" points="444,-10 444,-30 464,-30 464,-10 444,-10"/>
<text text-anchor="start" x="467.67" y="-15.4" font-family="Times-12" font-size="14.00"> &#160;Providers</text>
<polygon fill="#fb8072" stroke="transparent" points="540,-10 540,-30 560,-30 560,-10 540,-10"/>
<text text-anchor="start" x="563.73" y="-15.4" font-family="Times-12" font-size="14.00"> &#160;Exports</text>
<g id="clust1" class="cluster">
<title>cluster_LayoutsModule</title>
<polygon fill="none" stroke="black" stroke-dasharray="1,5" points="8,-70 8,-268 756,-268 756,-70 8,-70"/>
</g>
<g id="clust2" class="cluster">
<title>cluster_LayoutsModule_declarations</title>
<polygon fill="none" stroke="black" points="138,-78 138,-130 748,-130 748,-78 138,-78"/>
</g>
<g id="clust7" class="cluster">
<title>cluster_LayoutsModule_imports</title>
<polygon fill="none" stroke="black" points="16,-78 16,-130 130,-130 130,-78 16,-78"/>
</g>
<g id="clust8" class="cluster">
<title>cluster_LayoutsModule_exports</title>
<polygon fill="none" stroke="black" points="216,-208 216,-260 524,-260 524,-208 216,-208"/>
</g>
<!-- HorizontalComponent -->
<g id="node1" class="node">
<title>HorizontalComponent</title>
<polygon fill="#ffffb3" stroke="black" points="739.7,-122 598.3,-122 598.3,-86 739.7,-86 739.7,-122"/>
<text text-anchor="middle" x="669" y="-99.8" font-family="Times,serif" font-size="14.00">HorizontalComponent</text>
</g>
<!-- LayoutsModule -->
<g id="node5" class="node">
<title>LayoutsModule</title>
<polygon fill="#8dd3c7" stroke="black" points="418.15,-187 415.15,-191 394.15,-191 391.15,-187 313.85,-187 313.85,-151 418.15,-151 418.15,-187"/>
<text text-anchor="middle" x="366" y="-164.8" font-family="Times,serif" font-size="14.00">LayoutsModule</text>
</g>
<!-- HorizontalComponent&#45;&gt;LayoutsModule -->
<g id="edge1" class="edge">
<title>HorizontalComponent&#45;&gt;LayoutsModule</title>
<path fill="none" stroke="black" d="M669,-122.28C669,-143.32 669,-175 669,-175 669,-175 428.43,-175 428.43,-175"/>
<polygon fill="black" stroke="black" points="428.43,-171.5 418.43,-175 428.43,-178.5 428.43,-171.5"/>
</g>
<!-- LayoutComponent -->
<g id="node2" class="node">
<title>LayoutComponent</title>
<polygon fill="#ffffb3" stroke="black" points="580.49,-122 459.51,-122 459.51,-86 580.49,-86 580.49,-122"/>
<text text-anchor="middle" x="520" y="-99.8" font-family="Times,serif" font-size="14.00">LayoutComponent</text>
</g>
<!-- LayoutComponent&#45;&gt;LayoutsModule -->
<g id="edge2" class="edge">
<title>LayoutComponent&#45;&gt;LayoutsModule</title>
<path fill="none" stroke="black" d="M487.93,-122.02C487.93,-139.37 487.93,-163 487.93,-163 487.93,-163 428.42,-163 428.42,-163"/>
<polygon fill="black" stroke="black" points="428.42,-159.5 418.42,-163 428.42,-166.5 428.42,-159.5"/>
</g>
<!-- UserInfoBarComponent -->
<g id="node3" class="node">
<title>UserInfoBarComponent</title>
<polygon fill="#ffffb3" stroke="black" points="441.79,-122 290.21,-122 290.21,-86 441.79,-86 441.79,-122"/>
<text text-anchor="middle" x="366" y="-99.8" font-family="Times,serif" font-size="14.00">UserInfoBarComponent</text>
</g>
<!-- UserInfoBarComponent&#45;&gt;LayoutsModule -->
<g id="edge3" class="edge">
<title>UserInfoBarComponent&#45;&gt;LayoutsModule</title>
<path fill="none" stroke="black" d="M366,-122.11C366,-122.11 366,-140.99 366,-140.99"/>
<polygon fill="black" stroke="black" points="362.5,-140.99 366,-150.99 369.5,-140.99 362.5,-140.99"/>
</g>
<!-- VerticalComponent -->
<g id="node4" class="node">
<title>VerticalComponent</title>
<polygon fill="#ffffb3" stroke="black" points="272.42,-122 145.58,-122 145.58,-86 272.42,-86 272.42,-122"/>
<text text-anchor="middle" x="209" y="-99.8" font-family="Times,serif" font-size="14.00">VerticalComponent</text>
</g>
<!-- VerticalComponent&#45;&gt;LayoutsModule -->
<g id="edge4" class="edge">
<title>VerticalComponent&#45;&gt;LayoutsModule</title>
<path fill="none" stroke="black" d="M248.12,-122.02C248.12,-139.37 248.12,-163 248.12,-163 248.12,-163 303.61,-163 303.61,-163"/>
<polygon fill="black" stroke="black" points="303.61,-166.5 313.61,-163 303.61,-159.5 303.61,-166.5"/>
</g>
<!-- HorizontalComponent  -->
<g id="node7" class="node">
<title>HorizontalComponent </title>
<polygon fill="#fb8072" stroke="black" points="516.2,-252 371.8,-252 371.8,-216 516.2,-216 516.2,-252"/>
<text text-anchor="middle" x="444" y="-229.8" font-family="Times,serif" font-size="14.00">HorizontalComponent </text>
</g>
<!-- LayoutsModule&#45;&gt;HorizontalComponent  -->
<g id="edge6" class="edge">
<title>LayoutsModule&#45;&gt;HorizontalComponent </title>
<path fill="none" stroke="black" stroke-dasharray="5,2" d="M394.99,-187.11C394.99,-187.11 394.99,-205.99 394.99,-205.99"/>
<polygon fill="black" stroke="black" points="391.49,-205.99 394.99,-215.99 398.49,-205.99 391.49,-205.99"/>
</g>
<!-- VerticalComponent  -->
<g id="node8" class="node">
<title>VerticalComponent </title>
<polygon fill="#fb8072" stroke="black" points="353.92,-252 224.08,-252 224.08,-216 353.92,-216 353.92,-252"/>
<text text-anchor="middle" x="289" y="-229.8" font-family="Times,serif" font-size="14.00">VerticalComponent </text>
</g>
<!-- LayoutsModule&#45;&gt;VerticalComponent  -->
<g id="edge7" class="edge">
<title>LayoutsModule&#45;&gt;VerticalComponent </title>
<path fill="none" stroke="black" stroke-dasharray="5,2" d="M333.82,-187.11C333.82,-187.11 333.82,-205.99 333.82,-205.99"/>
<polygon fill="black" stroke="black" points="330.32,-205.99 333.82,-215.99 337.32,-205.99 330.32,-205.99"/>
</g>
<!-- SharedModule -->
<g id="node6" class="node">
<title>SharedModule</title>
<polygon fill="#8dd3c7" stroke="black" points="122.42,-122 119.42,-126 98.42,-126 95.42,-122 23.58,-122 23.58,-86 122.42,-86 122.42,-122"/>
<text text-anchor="middle" x="73" y="-99.8" font-family="Times,serif" font-size="14.00">SharedModule</text>
</g>
<!-- SharedModule&#45;&gt;LayoutsModule -->
<g id="edge5" class="edge">
<title>SharedModule&#45;&gt;LayoutsModule</title>
<path fill="none" stroke="black" d="M73,-122.28C73,-143.32 73,-175 73,-175 73,-175 303.62,-175 303.62,-175"/>
<polygon fill="black" stroke="black" points="303.62,-178.5 313.62,-175 303.62,-171.5 303.62,-178.5"/>
</g>
</g>
</svg>
