<?xml version="1.0" encoding="UTF-8" standalone="no"?>
<!DOCTYPE svg PUBLIC "-//W3C//DTD SVG 1.1//EN"
 "http://www.w3.org/Graphics/SVG/1.1/DTD/svg11.dtd">
<!-- Generated by graphviz version 2.47.0 (20210316.0004)
 -->
<!-- Title: dependencies Pages: 1 -->
<svg width="4221pt" height="211pt"
 viewBox="0.00 0.00 4221.00 211.00" xmlns="http://www.w3.org/2000/svg" xmlns:xlink="http://www.w3.org/1999/xlink">
<g id="graph0" class="graph" transform="scale(1 1) rotate(0) translate(4 207)">
<title>dependencies</title>
<polygon fill="white" stroke="transparent" points="-4,4 -4,-207 4217,-207 4217,4 -4,4"/>
<text text-anchor="start" x="2085.51" y="-42.4" font-family="Times-12" font-weight="bold" font-size="14.00">Legend</text>
<polygon fill="#ffffb3" stroke="transparent" points="1872.5,-10 1872.5,-30 1892.5,-30 1892.5,-10 1872.5,-10"/>
<text text-anchor="start" x="1896.13" y="-15.4" font-family="Times-12" font-size="14.00"> &#160;Declarations</text>
<polygon fill="#8dd3c7" stroke="transparent" points="1985.5,-10 1985.5,-30 2005.5,-30 2005.5,-10 1985.5,-10"/>
<text text-anchor="start" x="2009.23" y="-15.4" font-family="Times-12" font-size="14.00"> &#160;Module</text>
<polygon fill="#80b1d3" stroke="transparent" points="2071.5,-10 2071.5,-30 2091.5,-30 2091.5,-10 2071.5,-10"/>
<text text-anchor="start" x="2095.28" y="-15.4" font-family="Times-12" font-size="14.00"> &#160;Bootstrap</text>
<polygon fill="#fdb462" stroke="transparent" points="2168.5,-10 2168.5,-30 2188.5,-30 2188.5,-10 2168.5,-10"/>
<text text-anchor="start" x="2192.17" y="-15.4" font-family="Times-12" font-size="14.00"> &#160;Providers</text>
<polygon fill="#fb8072" stroke="transparent" points="2264.5,-10 2264.5,-30 2284.5,-30 2284.5,-10 2264.5,-10"/>
<text text-anchor="start" x="2288.23" y="-15.4" font-family="Times-12" font-size="14.00"> &#160;Exports</text>
<g id="clust1" class="cluster">
<title>cluster_PagesModule</title>
<polygon fill="none" stroke="black" stroke-dasharray="1,5" points="8,-70 8,-195 4205,-195 4205,-70 8,-70"/>
</g>
<g id="clust22" class="cluster">
<title>cluster_PagesModule_imports</title>
<polygon fill="none" stroke="black" points="3495,-78 3495,-130 4197,-130 4197,-78 3495,-78"/>
</g>
<g id="clust2" class="cluster">
<title>cluster_PagesModule_declarations</title>
<polygon fill="none" stroke="black" points="16,-78 16,-130 3487,-130 3487,-78 16,-78"/>
</g>
<!-- CompanyCreateComponent -->
<g id="node1" class="node">
<title>CompanyCreateComponent</title>
<polygon fill="#ffffb3" stroke="black" points="3479.31,-122 3306.69,-122 3306.69,-86 3479.31,-86 3479.31,-122"/>
<text text-anchor="middle" x="3393" y="-99.8" font-family="Times,serif" font-size="14.00">CompanyCreateComponent</text>
</g>
<!-- PagesModule -->
<g id="node20" class="node">
<title>PagesModule</title>
<polygon fill="#8dd3c7" stroke="black" points="2366.21,-187 2363.21,-191 2342.21,-191 2339.21,-187 2273.79,-187 2273.79,-151 2366.21,-151 2366.21,-187"/>
<text text-anchor="middle" x="2320" y="-164.8" font-family="Times,serif" font-size="14.00">PagesModule</text>
</g>
<!-- CompanyCreateComponent&#45;&gt;PagesModule -->
<g id="edge1" class="edge">
<title>CompanyCreateComponent&#45;&gt;PagesModule</title>
<path fill="none" stroke="black" d="M3393,-122.17C3393,-141.09 3393,-168 3393,-168 3393,-168 2376.11,-168 2376.11,-168"/>
<polygon fill="black" stroke="black" points="2376.11,-164.5 2366.11,-168 2376.11,-171.5 2376.11,-164.5"/>
</g>
<!-- CompanyDetailComponent -->
<g id="node2" class="node">
<title>CompanyDetailComponent</title>
<polygon fill="#ffffb3" stroke="black" points="3288.98,-122 3119.02,-122 3119.02,-86 3288.98,-86 3288.98,-122"/>
<text text-anchor="middle" x="3204" y="-99.8" font-family="Times,serif" font-size="14.00">CompanyDetailComponent</text>
</g>
<!-- CompanyDetailComponent&#45;&gt;PagesModule -->
<g id="edge2" class="edge">
<title>CompanyDetailComponent&#45;&gt;PagesModule</title>
<path fill="none" stroke="black" d="M3204,-122.3C3204,-140.27 3204,-165 3204,-165 3204,-165 2376.28,-165 2376.28,-165"/>
<polygon fill="black" stroke="black" points="2376.28,-161.5 2366.28,-165 2376.28,-168.5 2376.28,-161.5"/>
</g>
<!-- CompanyUpdateComponent -->
<g id="node3" class="node">
<title>CompanyUpdateComponent</title>
<polygon fill="#ffffb3" stroke="black" points="3101.2,-122 2924.8,-122 2924.8,-86 3101.2,-86 3101.2,-122"/>
<text text-anchor="middle" x="3013" y="-99.8" font-family="Times,serif" font-size="14.00">CompanyUpdateComponent</text>
</g>
<!-- CompanyUpdateComponent&#45;&gt;PagesModule -->
<g id="edge3" class="edge">
<title>CompanyUpdateComponent&#45;&gt;PagesModule</title>
<path fill="none" stroke="black" d="M3013,-122.02C3013,-139.37 3013,-163 3013,-163 3013,-163 2376.28,-163 2376.28,-163"/>
<polygon fill="black" stroke="black" points="2376.28,-159.5 2366.28,-163 2376.28,-166.5 2376.28,-159.5"/>
</g>
<!-- ContractActivityComponent -->
<g id="node4" class="node">
<title>ContractActivityComponent</title>
<polygon fill="#ffffb3" stroke="black" points="2906.92,-122 2731.08,-122 2731.08,-86 2906.92,-86 2906.92,-122"/>
<text text-anchor="middle" x="2819" y="-99.8" font-family="Times,serif" font-size="14.00">ContractActivityComponent</text>
</g>
<!-- ContractActivityComponent&#45;&gt;PagesModule -->
<g id="edge4" class="edge">
<title>ContractActivityComponent&#45;&gt;PagesModule</title>
<path fill="none" stroke="black" d="M2819,-122.03C2819,-138.4 2819,-160 2819,-160 2819,-160 2376.5,-160 2376.5,-160"/>
<polygon fill="black" stroke="black" points="2376.5,-156.5 2366.5,-160 2376.5,-163.5 2376.5,-156.5"/>
</g>
<!-- CreateUserComponent -->
<g id="node5" class="node">
<title>CreateUserComponent</title>
<polygon fill="#ffffb3" stroke="black" points="2713.29,-122 2568.71,-122 2568.71,-86 2713.29,-86 2713.29,-122"/>
<text text-anchor="middle" x="2641" y="-99.8" font-family="Times,serif" font-size="14.00">CreateUserComponent</text>
</g>
<!-- CreateUserComponent&#45;&gt;PagesModule -->
<g id="edge5" class="edge">
<title>CreateUserComponent&#45;&gt;PagesModule</title>
<path fill="none" stroke="black" d="M2641,-122.24C2641,-137.57 2641,-157 2641,-157 2641,-157 2376.33,-157 2376.33,-157"/>
<polygon fill="black" stroke="black" points="2376.33,-153.5 2366.33,-157 2376.33,-160.5 2376.33,-153.5"/>
</g>
<!-- DashboardFakeComponent -->
<g id="node6" class="node">
<title>DashboardFakeComponent</title>
<polygon fill="#ffffb3" stroke="black" points="2550.69,-122 2381.31,-122 2381.31,-86 2550.69,-86 2550.69,-122"/>
<text text-anchor="middle" x="2466" y="-99.8" font-family="Times,serif" font-size="14.00">DashboardFakeComponent</text>
</g>
<!-- DashboardFakeComponent&#45;&gt;PagesModule -->
<g id="edge6" class="edge">
<title>DashboardFakeComponent&#45;&gt;PagesModule</title>
<path fill="none" stroke="black" d="M2466,-122.05C2466,-136.37 2466,-154 2466,-154 2466,-154 2376.2,-154 2376.2,-154"/>
<polygon fill="black" stroke="black" points="2376.2,-150.5 2366.2,-154 2376.2,-157.5 2376.2,-150.5"/>
</g>
<!-- FileSizePipe -->
<g id="node7" class="node">
<title>FileSizePipe</title>
<polygon fill="#ffffb3" stroke="black" points="2363.27,-122 2276.73,-122 2276.73,-86 2363.27,-86 2363.27,-122"/>
<text text-anchor="middle" x="2320" y="-99.8" font-family="Times,serif" font-size="14.00">FileSizePipe</text>
</g>
<!-- FileSizePipe&#45;&gt;PagesModule -->
<g id="edge7" class="edge">
<title>FileSizePipe&#45;&gt;PagesModule</title>
<path fill="none" stroke="black" d="M2320,-122.11C2320,-122.11 2320,-140.99 2320,-140.99"/>
<polygon fill="black" stroke="black" points="2316.5,-140.99 2320,-150.99 2323.5,-140.99 2316.5,-140.99"/>
</g>
<!-- FilterPipe -->
<g id="node8" class="node">
<title>FilterPipe</title>
<polygon fill="#ffffb3" stroke="black" points="2258.72,-122 2187.28,-122 2187.28,-86 2258.72,-86 2258.72,-122"/>
<text text-anchor="middle" x="2223" y="-99.8" font-family="Times,serif" font-size="14.00">FilterPipe</text>
</g>
<!-- FilterPipe&#45;&gt;PagesModule -->
<g id="edge8" class="edge">
<title>FilterPipe&#45;&gt;PagesModule</title>
<path fill="none" stroke="black" d="M2223,-122.05C2223,-136.37 2223,-154 2223,-154 2223,-154 2263.77,-154 2263.77,-154"/>
<polygon fill="black" stroke="black" points="2263.77,-157.5 2273.77,-154 2263.77,-150.5 2263.77,-157.5"/>
</g>
<!-- ManageCompaniesComponent -->
<g id="node9" class="node">
<title>ManageCompaniesComponent</title>
<polygon fill="#ffffb3" stroke="black" points="2169.91,-122 1980.09,-122 1980.09,-86 2169.91,-86 2169.91,-122"/>
<text text-anchor="middle" x="2075" y="-99.8" font-family="Times,serif" font-size="14.00">ManageCompaniesComponent</text>
</g>
<!-- ManageCompaniesComponent&#45;&gt;PagesModule -->
<g id="edge9" class="edge">
<title>ManageCompaniesComponent&#45;&gt;PagesModule</title>
<path fill="none" stroke="black" d="M2075,-122.24C2075,-137.57 2075,-157 2075,-157 2075,-157 2263.63,-157 2263.63,-157"/>
<polygon fill="black" stroke="black" points="2263.63,-160.5 2273.63,-157 2263.63,-153.5 2263.63,-160.5"/>
</g>
<!-- ManageOrdersComponent -->
<g id="node10" class="node">
<title>ManageOrdersComponent</title>
<polygon fill="#ffffb3" stroke="black" points="1962.01,-122 1797.99,-122 1797.99,-86 1962.01,-86 1962.01,-122"/>
<text text-anchor="middle" x="1880" y="-99.8" font-family="Times,serif" font-size="14.00">ManageOrdersComponent</text>
</g>
<!-- ManageOrdersComponent&#45;&gt;PagesModule -->
<g id="edge10" class="edge">
<title>ManageOrdersComponent&#45;&gt;PagesModule</title>
<path fill="none" stroke="black" d="M1880,-122.03C1880,-138.4 1880,-160 1880,-160 1880,-160 2263.74,-160 2263.74,-160"/>
<polygon fill="black" stroke="black" points="2263.74,-163.5 2273.74,-160 2263.74,-156.5 2263.74,-163.5"/>
</g>
<!-- ManageUsersComponent -->
<g id="node11" class="node">
<title>ManageUsersComponent</title>
<polygon fill="#ffffb3" stroke="black" points="1780.29,-122 1621.71,-122 1621.71,-86 1780.29,-86 1780.29,-122"/>
<text text-anchor="middle" x="1701" y="-99.8" font-family="Times,serif" font-size="14.00">ManageUsersComponent</text>
</g>
<!-- ManageUsersComponent&#45;&gt;PagesModule -->
<g id="edge11" class="edge">
<title>ManageUsersComponent&#45;&gt;PagesModule</title>
<path fill="none" stroke="black" d="M1701,-122.02C1701,-139.37 1701,-163 1701,-163 1701,-163 2263.73,-163 2263.73,-163"/>
<polygon fill="black" stroke="black" points="2263.73,-166.5 2273.73,-163 2263.73,-159.5 2263.73,-166.5"/>
</g>
<!-- OrderDetailCocontractorComponent -->
<g id="node12" class="node">
<title>OrderDetailCocontractorComponent</title>
<polygon fill="#ffffb3" stroke="black" points="1603.77,-122 1382.23,-122 1382.23,-86 1603.77,-86 1603.77,-122"/>
<text text-anchor="middle" x="1493" y="-99.8" font-family="Times,serif" font-size="14.00">OrderDetailCocontractorComponent</text>
</g>
<!-- OrderDetailCocontractorComponent&#45;&gt;PagesModule -->
<g id="edge12" class="edge">
<title>OrderDetailCocontractorComponent&#45;&gt;PagesModule</title>
<path fill="none" stroke="black" d="M1493,-122.3C1493,-140.27 1493,-165 1493,-165 1493,-165 2263.76,-165 2263.76,-165"/>
<polygon fill="black" stroke="black" points="2263.76,-168.5 2273.76,-165 2263.76,-161.5 2263.76,-168.5"/>
</g>
<!-- OrderDetailComponent -->
<g id="node13" class="node">
<title>OrderDetailComponent</title>
<polygon fill="#ffffb3" stroke="black" points="1364.18,-122 1215.82,-122 1215.82,-86 1364.18,-86 1364.18,-122"/>
<text text-anchor="middle" x="1290" y="-99.8" font-family="Times,serif" font-size="14.00">OrderDetailComponent</text>
</g>
<!-- OrderDetailComponent&#45;&gt;PagesModule -->
<g id="edge13" class="edge">
<title>OrderDetailComponent&#45;&gt;PagesModule</title>
<path fill="none" stroke="black" d="M1290,-122.17C1290,-141.09 1290,-168 1290,-168 1290,-168 2263.74,-168 2263.74,-168"/>
<polygon fill="black" stroke="black" points="2263.74,-171.5 2273.74,-168 2263.74,-164.5 2263.74,-171.5"/>
</g>
<!-- OrderDetailCustomerComponent -->
<g id="node14" class="node">
<title>OrderDetailCustomerComponent</title>
<polygon fill="#ffffb3" stroke="black" points="1198.12,-122 995.88,-122 995.88,-86 1198.12,-86 1198.12,-122"/>
<text text-anchor="middle" x="1097" y="-99.8" font-family="Times,serif" font-size="14.00">OrderDetailCustomerComponent</text>
</g>
<!-- OrderDetailCustomerComponent&#45;&gt;PagesModule -->
<g id="edge14" class="edge">
<title>OrderDetailCustomerComponent&#45;&gt;PagesModule</title>
<path fill="none" stroke="black" d="M1097,-122.31C1097,-142.15 1097,-171 1097,-171 1097,-171 2263.55,-171 2263.55,-171"/>
<polygon fill="black" stroke="black" points="2263.55,-174.5 2273.55,-171 2263.55,-167.5 2263.55,-174.5"/>
</g>
<!-- OrderFilesManagementComponent -->
<g id="node15" class="node">
<title>OrderFilesManagementComponent</title>
<polygon fill="#ffffb3" stroke="black" points="978.28,-122 763.72,-122 763.72,-86 978.28,-86 978.28,-122"/>
<text text-anchor="middle" x="871" y="-99.8" font-family="Times,serif" font-size="14.00">OrderFilesManagementComponent</text>
</g>
<!-- OrderFilesManagementComponent&#45;&gt;PagesModule -->
<g id="edge15" class="edge">
<title>OrderFilesManagementComponent&#45;&gt;PagesModule</title>
<path fill="none" stroke="black" d="M871,-122.03C871,-142.77 871,-174 871,-174 871,-174 2263.84,-174 2263.84,-174"/>
<polygon fill="black" stroke="black" points="2263.84,-177.5 2273.84,-174 2263.84,-170.5 2263.84,-177.5"/>
</g>
<!-- OrderFormComponent -->
<g id="node16" class="node">
<title>OrderFormComponent</title>
<polygon fill="#ffffb3" stroke="black" points="746.31,-122 601.69,-122 601.69,-86 746.31,-86 746.31,-122"/>
<text text-anchor="middle" x="674" y="-99.8" font-family="Times,serif" font-size="14.00">OrderFormComponent</text>
</g>
<!-- OrderFormComponent&#45;&gt;PagesModule -->
<g id="edge16" class="edge">
<title>OrderFormComponent&#45;&gt;PagesModule</title>
<path fill="none" stroke="black" d="M674,-122.17C674,-143.5 674,-176 674,-176 674,-176 2263.83,-176 2263.83,-176"/>
<polygon fill="black" stroke="black" points="2263.83,-179.5 2273.83,-176 2263.83,-172.5 2263.83,-179.5"/>
</g>
<!-- OrderUpdateCocontractorComponent -->
<g id="node17" class="node">
<title>OrderUpdateCocontractorComponent</title>
<polygon fill="#ffffb3" stroke="black" points="583.98,-122 356.02,-122 356.02,-86 583.98,-86 583.98,-122"/>
<text text-anchor="middle" x="470" y="-99.8" font-family="Times,serif" font-size="14.00">OrderUpdateCocontractorComponent</text>
</g>
<!-- OrderUpdateCocontractorComponent&#45;&gt;PagesModule -->
<g id="edge17" class="edge">
<title>OrderUpdateCocontractorComponent&#45;&gt;PagesModule</title>
<path fill="none" stroke="black" d="M470,-122.16C470,-144.35 470,-179 470,-179 470,-179 2263.81,-179 2263.81,-179"/>
<polygon fill="black" stroke="black" points="2263.81,-182.5 2273.81,-179 2263.81,-175.5 2263.81,-182.5"/>
</g>
<!-- OrderUpdateComponent -->
<g id="node18" class="node">
<title>OrderUpdateComponent</title>
<polygon fill="#ffffb3" stroke="black" points="338.4,-122 183.6,-122 183.6,-86 338.4,-86 338.4,-122"/>
<text text-anchor="middle" x="261" y="-99.8" font-family="Times,serif" font-size="14.00">OrderUpdateComponent</text>
</g>
<!-- OrderUpdateComponent&#45;&gt;PagesModule -->
<g id="edge18" class="edge">
<title>OrderUpdateComponent&#45;&gt;PagesModule</title>
<path fill="none" stroke="black" d="M261,-122.09C261,-145.13 261,-182 261,-182 261,-182 2263.62,-182 2263.62,-182"/>
<polygon fill="black" stroke="black" points="2263.62,-185.5 2273.62,-182 2263.62,-178.5 2263.62,-185.5"/>
</g>
<!-- UserDetailComponent -->
<g id="node19" class="node">
<title>UserDetailComponent</title>
<polygon fill="#ffffb3" stroke="black" points="165.97,-122 24.03,-122 24.03,-86 165.97,-86 165.97,-122"/>
<text text-anchor="middle" x="95" y="-99.8" font-family="Times,serif" font-size="14.00">UserDetailComponent</text>
</g>
<!-- UserDetailComponent&#45;&gt;PagesModule -->
<g id="edge19" class="edge">
<title>UserDetailComponent&#45;&gt;PagesModule</title>
<path fill="none" stroke="black" d="M95,-122.38C95,-146.28 95,-185 95,-185 95,-185 2263.78,-185 2263.78,-185"/>
<polygon fill="black" stroke="black" points="2263.78,-188.5 2273.78,-185 2263.78,-181.5 2263.78,-188.5"/>
</g>
<!-- DashboardModule -->
<g id="node21" class="node">
<title>DashboardModule</title>
<polygon fill="#8dd3c7" stroke="black" points="4189.19,-122 4186.19,-126 4165.19,-126 4162.19,-122 4068.81,-122 4068.81,-86 4189.19,-86 4189.19,-122"/>
<text text-anchor="middle" x="4129" y="-99.8" font-family="Times,serif" font-size="14.00">DashboardModule</text>
</g>
<!-- DashboardModule&#45;&gt;PagesModule -->
<g id="edge20" class="edge">
<title>DashboardModule&#45;&gt;PagesModule</title>
<path fill="none" stroke="black" d="M4129,-122.38C4129,-146.28 4129,-185 4129,-185 4129,-185 2376.54,-185 2376.54,-185"/>
<polygon fill="black" stroke="black" points="2376.54,-181.5 2366.54,-185 2376.53,-188.5 2376.54,-181.5"/>
</g>
<!-- IconsModule -->
<g id="node22" class="node">
<title>IconsModule</title>
<polygon fill="#8dd3c7" stroke="black" points="4050.87,-122 4047.87,-126 4026.87,-126 4023.87,-122 3961.13,-122 3961.13,-86 4050.87,-86 4050.87,-122"/>
<text text-anchor="middle" x="4006" y="-99.8" font-family="Times,serif" font-size="14.00">IconsModule</text>
</g>
<!-- IconsModule&#45;&gt;PagesModule -->
<g id="edge21" class="edge">
<title>IconsModule&#45;&gt;PagesModule</title>
<path fill="none" stroke="black" d="M4006,-122.09C4006,-145.13 4006,-182 4006,-182 4006,-182 2376.41,-182 2376.41,-182"/>
<polygon fill="black" stroke="black" points="2376.41,-178.5 2366.41,-182 2376.41,-185.5 2376.41,-178.5"/>
</g>
<!-- PagesRoutingModule -->
<g id="node23" class="node">
<title>PagesRoutingModule</title>
<polygon fill="#8dd3c7" stroke="black" points="3942.82,-122 3939.82,-126 3918.82,-126 3915.82,-122 3805.18,-122 3805.18,-86 3942.82,-86 3942.82,-122"/>
<text text-anchor="middle" x="3874" y="-99.8" font-family="Times,serif" font-size="14.00">PagesRoutingModule</text>
</g>
<!-- PagesRoutingModule&#45;&gt;PagesModule -->
<g id="edge22" class="edge">
<title>PagesRoutingModule&#45;&gt;PagesModule</title>
<path fill="none" stroke="black" d="M3874,-122.16C3874,-144.35 3874,-179 3874,-179 3874,-179 2376.51,-179 2376.51,-179"/>
<polygon fill="black" stroke="black" points="2376.51,-175.5 2366.51,-179 2376.51,-182.5 2376.51,-175.5"/>
</g>
<!-- UIModule -->
<g id="node24" class="node">
<title>UIModule</title>
<polygon fill="#8dd3c7" stroke="black" points="3787.32,-122 3784.32,-126 3763.32,-126 3760.32,-122 3712.68,-122 3712.68,-86 3787.32,-86 3787.32,-122"/>
<text text-anchor="middle" x="3750" y="-99.8" font-family="Times,serif" font-size="14.00">UIModule</text>
</g>
<!-- UIModule&#45;&gt;PagesModule -->
<g id="edge23" class="edge">
<title>UIModule&#45;&gt;PagesModule</title>
<path fill="none" stroke="black" d="M3750,-122.17C3750,-143.5 3750,-176 3750,-176 3750,-176 2376.36,-176 2376.36,-176"/>
<polygon fill="black" stroke="black" points="2376.36,-172.5 2366.36,-176 2376.36,-179.5 2376.36,-172.5"/>
</g>
<!-- UiModule -->
<g id="node25" class="node">
<title>UiModule</title>
<polygon fill="#8dd3c7" stroke="black" points="3694.55,-122 3691.55,-126 3670.55,-126 3667.55,-122 3621.45,-122 3621.45,-86 3694.55,-86 3694.55,-122"/>
<text text-anchor="middle" x="3658" y="-99.8" font-family="Times,serif" font-size="14.00">UiModule</text>
</g>
<!-- UiModule&#45;&gt;PagesModule -->
<g id="edge24" class="edge">
<title>UiModule&#45;&gt;PagesModule</title>
<path fill="none" stroke="black" d="M3658,-122.03C3658,-142.77 3658,-174 3658,-174 3658,-174 2376.45,-174 2376.45,-174"/>
<polygon fill="black" stroke="black" points="2376.45,-170.5 2366.45,-174 2376.45,-177.5 2376.45,-170.5"/>
</g>
<!-- WidgetModule -->
<g id="node26" class="node">
<title>WidgetModule</title>
<polygon fill="#8dd3c7" stroke="black" points="3603.26,-122 3600.26,-126 3579.26,-126 3576.26,-122 3502.74,-122 3502.74,-86 3603.26,-86 3603.26,-122"/>
<text text-anchor="middle" x="3553" y="-99.8" font-family="Times,serif" font-size="14.00">WidgetModule</text>
</g>
<!-- WidgetModule&#45;&gt;PagesModule -->
<g id="edge25" class="edge">
<title>WidgetModule&#45;&gt;PagesModule</title>
<path fill="none" stroke="black" d="M3553,-122.31C3553,-142.15 3553,-171 3553,-171 3553,-171 2376.46,-171 2376.46,-171"/>
<polygon fill="black" stroke="black" points="2376.46,-167.5 2366.46,-171 2376.46,-174.5 2376.46,-167.5"/>
</g>
</g>
</svg>
